<?xml version="1.0" encoding="UTF-8" standalone="no"?>
<svg xmlns="http://www.w3.org/2000/svg" width="600" height="400" viewBox="0 0 600 400">
  <rect width="600" height="400" fill="#f8f9fa" rx="10" ry="10"/>
  
  <!-- Interface de feuille de calcul -->
  <rect x="50" y="50" width="500" height="300" fill="white" stroke="#ddd" stroke-width="1"/>
  
  <!-- En-têtes de colonnes -->
  <rect x="50" y="50" width="500" height="30" fill="#f1f3f4"/>
  <text x="90" y="70" font-family="Arial, sans-serif" font-size="12" fill="#333">A</text>
  <text x="190" y="70" font-family="Arial, sans-serif" font-size="12" fill="#333">B</text>
  <text x="290" y="70" font-family="Arial, sans-serif" font-size="12" fill="#333">C</text>
  <text x="390" y="70" font-family="Arial, sans-serif" font-size="12" fill="#333">D</text>
  <text x="490" y="70" font-family="Arial, sans-serif" font-size="12" fill="#333">E</text>
  
  <!-- En-têtes de lignes -->
  <rect x="50" y="50" width="40" height="300" fill="#f1f3f4"/>
  <text x="70" y="110" font-family="Arial, sans-serif" font-size="12" fill="#333">1</text>
  <text x="70" y="150" font-family="Arial, sans-serif" font-size="12" fill="#333">2</text>
  <text x="70" y="190" font-family="Arial, sans-serif" font-size="12" fill="#333">3</text>
  <text x="70" y="230" font-family="Arial, sans-serif" font-size="12" fill="#333">4</text>
  <text x="70" y="270" font-family="Arial, sans-serif" font-size="12" fill="#333">5</text>
  <text x="70" y="310" font-family="Arial, sans-serif" font-size="12" fill="#333">6</text>
  
  <!-- Grille -->
  <line x1="90" y1="50" x2="90" y2="350" stroke="#ddd" stroke-width="1"/>
  <line x1="190" y1="50" x2="190" y2="350" stroke="#ddd" stroke-width="1"/>
  <line x1="290" y1="50" x2="290" y2="350" stroke="#ddd" stroke-width="1"/>
  <line x1="390" y1="50" x2="390" y2="350" stroke="#ddd" stroke-width="1"/>
  <line x1="490" y1="50" x2="490" y2="350" stroke="#ddd" stroke-width="1"/>
  
  <line x1="50" y1="80" x2="550" y2="80" stroke="#ddd" stroke-width="1"/>
  <line x1="50" y1="120" x2="550" y2="120" stroke="#ddd" stroke-width="1"/>
  <line x1="50" y1="160" x2="550" y2="160" stroke="#ddd" stroke-width="1"/>
  <line x1="50" y1="200" x2="550" y2="200" stroke="#ddd" stroke-width="1"/>
  <line x1="50" y1="240" x2="550" y2="240" stroke="#ddd" stroke-width="1"/>
  <line x1="50" y1="280" x2="550" y2="280" stroke="#ddd" stroke-width="1"/>
  <line x1="50" y1="320" x2="550" y2="320" stroke="#ddd" stroke-width="1"/>
  
  <!-- Cellule active -->
  <rect x="90" y="120" width="100" height="40" fill="#e8f0fe" stroke="#4285f4" stroke-width="2"/>
  
  <!-- Formule dans la cellule -->
  <text x="110" y="145" font-family="Monaco, monospace" font-size="12" fill="#333">=IROKOO.GET_FIELD("res.partner",15,"name")</text>
  
  <!-- Résultat -->
  <rect x="90" y="200" width="100" height="40" fill="#f8f9fa"/>
  <text x="140" y="225" font-family="Arial, sans-serif" font-size="14" text-anchor="middle" fill="#333">ACME Corp</text>
  
  <!-- Bulle d'aide -->
  <rect x="350" y="150" width="160" height="100" fill="#4285f4" rx="10" ry="10"/>
  <polygon points="320,180 350,170 350,190" fill="#4285f4"/>
  <text x="430" y="180" font-family="Arial, sans-serif" font-size="14" text-anchor="middle" fill="white">Accès direct</text>
  <text x="430" y="200" font-family="Arial, sans-serif" font-size="14" text-anchor="middle" fill="white">aux données Odoo</text>
  <text x="430" y="220" font-family="Arial, sans-serif" font-size="14" text-anchor="middle" fill="white">sans export</text>
</svg> 